HIERARCHY
ROOT Hips
{
	OFFSET 0.00000 0.00000 0.00000
	CHANNELS 6 Xposition Yposition Zposition Zrotation Yrotation Xrotation 
	JOINT LHipJoint
	{
		OFFSET 0 0 0
		CHANNELS 3 Zrotation Yrotation Xrotation
		JOINT LeftUpLeg
		{
			OFFSET 1.58895 -1.83665 0.71753
			CHANNELS 3 Zrotation Yrotation Xrotation
			JOINT LeftLeg
			{
				OFFSET 2.50528 -6.88321 0.00000
				CHANNELS 3 Zrotation Yrotation Xrotation
				JOINT LeftFoot
				{
					OFFSET 2.63244 -7.23257 0.00000
					CHANNELS 3 Zrotation Yrotation Xrotation
					JOINT LeftToeBase
					{
						OFFSET 0.23691 -0.65090 1.72750
						CHANNELS 3 Zrotation Yrotation Xrotation
						End Site
						{
							OFFSET 0.00000 -0.00000 0.92561
						}
					}
				}
			}
		}
	}
	JOINT RHipJoint
	{
		OFFSET 0 0 0
		CHANNELS 3 Zrotation Yrotation Xrotation
		JOINT RightUpLeg
		{
			OFFSET -1.51435 -1.83665 0.71753
			CHANNELS 3 Zrotation Yrotation Xrotation
			JOINT RightLeg
			{
				OFFSET -2.54551 -6.99375 0.00000
				CHANNELS 3 Zrotation Yrotation Xrotation
				JOINT RightFoot
				{
					OFFSET -2.66027 -7.30903 0.00000
					CHANNELS 3 Zrotation Yrotation Xrotation
					JOINT RightToeBase
					{
						OFFSET -0.22981 -0.63138 2.03959
						CHANNELS 3 Zrotation Yrotation Xrotation
						End Site
						{
							OFFSET -0.00000 -0.00000 1.07060
						}
					}
				}
			}
		}
	}
	JOINT LowerBack
	{
		OFFSET 0 0 0
		CHANNELS 3 Zrotation Yrotation Xrotation
		JOINT Spine
		{
			OFFSET -0.02651 1.86275 -0.11152
			CHANNELS 3 Zrotation Yrotation Xrotation
			JOINT Spine1
			{
				OFFSET 0.01019 1.86224 0.04087
				CHANNELS 3 Zrotation Yrotation Xrotation
				JOINT Neck
				{
					OFFSET 0 0 0
					CHANNELS 3 Zrotation Yrotation Xrotation
					JOINT Neck1
					{
						OFFSET -0.01926 1.80512 0.08867
						CHANNELS 3 Zrotation Yrotation Xrotation
						JOINT Head
						{
							OFFSET 0.05516 1.76451 -0.38475
							CHANNELS 3 Zrotation Yrotation Xrotation
							End Site
							{
								OFFSET 0.01592 1.82587 -0.14001
							}
						}
					}
				}
				JOINT LeftShoulder
				{
					OFFSET 0 0 0
					CHANNELS 3 Zrotation Yrotation Xrotation
					JOINT LeftArm
					{
						OFFSET 3.47116 1.51376 0.14491
						CHANNELS 3 Zrotation Yrotation Xrotation
						JOINT LeftForeArm
						{
							OFFSET 4.78095 -0.00000 0.00000
							CHANNELS 3 Zrotation Yrotation Xrotation
							JOINT LeftHand
							{
								OFFSET 3.58615 -0.00000 -0.00000
								CHANNELS 3 Zrotation Yrotation Xrotation
								JOINT LeftFingerBase
								{
									OFFSET 0 0 0
									CHANNELS 3 Zrotation Yrotation Xrotation
									JOINT LeftHandIndex1
									{
										OFFSET 0.65981 -0.00000 0.00000
										CHANNELS 3 Zrotation Yrotation Xrotation
										End Site
										{
											OFFSET 0.53196 -0.00000 0.00000
										}
									}
								}
								JOINT LThumb
								{
									OFFSET 0 0 0
									CHANNELS 3 Zrotation Yrotation Xrotation
									End Site
									{
										OFFSET 0.54008 -0.00000 0.54008
									}
								}
							}
						}
					}
				}
				JOINT RightShoulder
				{
					OFFSET 0 0 0
					CHANNELS 3 Zrotation Yrotation Xrotation
					JOINT RightArm
					{
						OFFSET -3.31725 1.61216 0.35156
						CHANNELS 3 Zrotation Yrotation Xrotation
						JOINT RightForeArm
						{
							OFFSET -4.48913 -0.00000 0.00000
							CHANNELS 3 Zrotation Yrotation Xrotation
							JOINT RightHand
							{
								OFFSET -3.70510 -0.00000 0.00000
								CHANNELS 3 Zrotation Yrotation Xrotation
								JOINT RightFingerBase
								{
									OFFSET 0 0 0
									CHANNELS 3 Zrotation Yrotation Xrotation
									JOINT RightHandIndex1
									{
										OFFSET -0.44914 -0.00000 0.00000
										CHANNELS 3 Zrotation Yrotation Xrotation
										End Site
										{
											OFFSET -0.36211 -0.00000 0.00000
										}
									}
								}
								JOINT RThumb
								{
									OFFSET 0 0 0
									CHANNELS 3 Zrotation Yrotation Xrotation
									End Site
									{
										OFFSET -0.36763 -0.00000 0.36763
									}
								}
							}
						}
					}
				}
			}
		}
	}
}
MOTION
Frames: 6
Frame Time: .0083333
-0.6655 18.4851 6.9325 -5.9551 2.4415 -1.8575 0.0000 0.0000 0.0000 -8.3936 -5.7682 0.8891 1.9906 8.8464 25.3161 1.8823 -0.7923 -25.7323 8.8465 -16.7079 -55.5578 0.0000 0.0000 0.0000 19.7641 -3.9158 14.7834 0.0000 0.0000 -0.0000 -1.3336 -3.0592 -23.1066 -0.5210 4.6260 -12.8450 3.0419 0.2063 8.6360 1.1544 0.8103 -5.7915 -0.6108 0.2120 -11.0765 -2.4561 -2.8434 -14.1959 3.3386 -4.7216 34.3977 1.0226 -1.9058 14.3061 -0.0000 0.0000 0.0000 -17.9935 9.5410 -33.4741 52.1520 -53.8274 -27.9022 -0.0000 0.0000 -42.5357 -0.3255 -26.0894 0.1432 -7.1250 0.0000 -0.0000 -18.0403 4.9362 17.3216 -0.0000 0.0000 0.0000 13.6496 -21.3565 -32.3060 -52.2215 53.8531 -27.9583 0.0000 -0.0000 -18.5642 16.7404 -23.5486 -6.8524 7.1250 -0.0000 -0.0000 43.4409 -48.4715 -4.5246
-0.6641 18.4854 6.9323 -5.9525 2.4954 -1.8701 0.0000 0.0000 0.0000 -8.4119 -5.8374 0.9021 1.9931 8.8517 25.3326 1.8798 -0.8278 -25.7043 8.8194 -16.6901 -55.4633 0.0000 0.0000 0.0000 19.7523 -3.9713 14.7819 0.0000 -0.0000 0.0000 -1.3377 -3.0297 -23.1255 -0.5042 4.5519 -12.6347 3.0835 0.2090 8.7240 1.1886 0.8272 -5.7988 -0.6008 0.2177 -11.1378 -2.5384 -2.8218 -14.1407 3.4003 -4.6915 34.5127 1.0691 -1.8942 14.3495 0.0000 0.0000 0.0000 -17.5915 9.4560 -33.6321 51.6910 -53.6552 -27.5305 -0.0000 0.0000 -41.6083 0.8952 -25.7508 -0.3890 -7.1250 0.0000 -0.0000 -17.3384 5.1823 16.4922 0.0000 0.0000 0.0000 13.3705 -21.0352 -32.8671 -51.3205 53.5144 -27.2323 0.0000 -0.0000 -17.9566 15.9828 -23.7381 -6.5772 7.1250 -0.0000 -0.0000 42.9685 -48.7366 -4.7846
-0.6616 18.4859 6.9323 -5.9325 2.5366 -1.8656 0.0000 0.0000 0.0000 -8.4395 -5.8493 0.8836 1.9949 8.8555 25.3442 1.8781 -0.8227 -25.6942 8.8228 -16.6923 -55.4751 0.0000 0.0000 0.0000 19.7206 -4.0079 14.7684 0.0000 0.0000 -0.0000 -1.3403 -3.0281 -23.1453 -0.5089 4.5727 -12.6938 3.1427 0.2081 8.7816 1.2074 0.8387 -5.8011 -0.6162 0.2190 -11.1749 -2.6156 -2.7839 -14.0251 3.5066 -4.6502 34.5127 1.1345 -1.8730 14.3273 -0.0000 0.0000 0.0000 -17.1495 9.3107 -33.9492 51.1996 -53.4680 -27.1352 -0.0000 0.0000 -41.0501 1.7010 -25.5327 -0.7334 -7.1250 0.0000 -0.0000 -16.8706 5.3363 15.9519 -0.0000 0.0000 0.0000 13.0736 -20.6440 -33.4479 -50.5049 53.1971 -26.5779 0.0000 -0.0000 -17.4032 14.9999 -23.8358 -6.1800 7.1250 -0.0000 -0.0000 42.2429 -48.9659 -4.9490
-0.6596 18.4860 6.9323 -5.8994 2.5570 -1.8537 0.0000 0.0000 0.0000 -8.4560 -5.7641 0.8247 1.9965 8.8589 25.3548 1.8719 -0.8636 -25.6388 8.8497 -16.7100 -55.5688 0.0000 0.0000 0.0000 19.6772 -4.0222 14.7552 0.0000 0.0000 -0.0000 -1.3412 -3.0213 -23.1499 -0.5103 4.5791 -12.7118 3.1678 0.2213 8.8060 1.2414 0.8643 -5.7892 -0.5984 0.2310 -11.1758 -2.5729 -2.7734 -13.8799 3.4625 -4.6300 34.4546 1.1137 -1.8668 14.2641 -0.0000 -0.0000 0.0000 -16.6974 9.0045 -34.4561 50.6123 -53.2395 -26.6639 -0.0000 0.0000 -40.7393 2.0595 -25.5074 -0.8872 -7.1250 0.0000 -0.0000 -16.6601 5.3352 15.7343 -0.0000 -0.0000 0.0000 12.6867 -20.2483 -33.9947 -49.7731 52.9036 -25.9931 0.0000 -0.0000 -16.7441 14.0389 -23.9692 -5.8003 7.1250 -0.0000 -0.0000 41.5515 -49.2208 -5.1382
-0.6587 18.4862 6.9322 -5.8747 2.5597 -1.8446 0.0000 0.0000 0.0000 -8.4621 -5.6883 0.7715 1.9988 8.8636 25.3694 1.8683 -0.9326 -25.5936 8.8692 -16.7228 -55.6368 0.0000 0.0000 0.0000 19.6483 -4.0218 14.7502 0.0000 0.0000 0.0000 -1.3443 -2.9949 -23.1616 -0.5023 4.5435 -12.6111 3.1710 0.2355 8.8301 1.2863 0.8895 -5.7850 -0.5564 0.2449 -11.1856 -2.4827 -2.7787 -13.7736 3.3339 -4.6201 34.4579 1.0486 -1.8694 14.2342 -0.0000 -0.0000 0.0000 -16.2822 8.6307 -35.0203 50.1297 -53.0477 -26.2778 -0.0000 0.0000 -40.2554 2.4218 -25.6010 -1.0470 -7.1250 0.0000 -0.0000 -16.4451 5.2193 15.5500 -0.0000 -0.0000 0.0000 12.2489 -19.7957 -34.5113 -49.1391 52.6423 -25.4882 0.0000 -0.0000 -15.8904 13.2415 -24.0889 -5.4861 7.1250 -0.0000 -0.0000 40.9778 -49.4404 -5.2953
-0.6583 18.4862 6.9299 -5.8774 2.5642 -1.8579 0.0000 0.0000 0.0000 -8.4461 -5.6525 0.7464 2.0020 8.8703 25.3904 1.8684 -0.9818 -25.5802 8.8713 -16.7242 -55.6441 0.0000 0.0000 0.0000 19.6491 -4.0317 14.7648 0.0000 0.0000 -0.0000 -1.3507 -2.9367 -23.1858 -0.4810 4.4477 -12.3397 3.2102 0.2326 8.9071 1.3301 0.8989 -5.7805 -0.5334 0.2479 -11.2274 -2.5117 -2.7819 -13.7099 3.3393 -4.6218 34.5112 1.0570 -1.8733 14.2451 0.0000 0.0000 0.0000 -15.8165 8.2485 -35.6127 49.6619 -52.8582 -25.9044 -0.0000 0.0000 -39.7061 2.4156 -25.9083 -1.0560 -7.1250 0.0000 -0.0000 -16.4448 4.9253 15.6448 0.0000 0.0000 0.0000 11.7902 -19.2836 -35.0093 -48.6440 52.4337 -25.0953 0.0000 -0.0000 -14.9350 12.5104 -24.1505 -5.1872 7.1250 -0.0000 -0.0000 40.4135 -49.6045 -5.3827
